<?xml version="1.0" encoding="UTF-8" standalone="no"?>
<svg
   xmlns:dc="http://purl.org/dc/elements/1.1/"
   xmlns:cc="http://creativecommons.org/ns#"
   xmlns:rdf="http://www.w3.org/1999/02/22-rdf-syntax-ns#"
   xmlns:svg="http://www.w3.org/2000/svg"
   xmlns="http://www.w3.org/2000/svg"
   xmlns:sodipodi="http://sodipodi.sourceforge.net/DTD/sodipodi-0.dtd"
   xmlns:inkscape="http://www.inkscape.org/namespaces/inkscape"
   version="1.0"
   width="497.000000pt"
   height="143.000000pt"
   viewBox="0 0 497.000000 143.000000"
   preserveAspectRatio="xMidYMid meet"
   id="svg94"
   sodipodi:docname="logo.svg"
   inkscape:version="1.0.2 (e86c8708, 2021-01-15)">
  <metadata
     id="metadata100">
    <rdf:RDF>
      <cc:Work
         rdf:about="">
        <dc:format>image/svg+xml</dc:format>
        <dc:type
           rdf:resource="http://purl.org/dc/dcmitype/StillImage" />
        <dc:title></dc:title>
      </cc:Work>
    </rdf:RDF>
  </metadata>
  <defs
     id="defs98" />
  <sodipodi:namedview
     pagecolor="#ffffff"
     bordercolor="#666666"
     borderopacity="1"
     objecttolerance="10"
     gridtolerance="10"
     guidetolerance="10"
     inkscape:pageopacity="0"
     inkscape:pageshadow="2"
     inkscape:window-width="2560"
     inkscape:window-height="1261"
     id="namedview96"
     showgrid="false"
     inkscape:zoom="1.8146378"
     inkscape:cx="206.42653"
     inkscape:cy="71.079022"
     inkscape:window-x="0"
     inkscape:window-y="25"
     inkscape:window-maximized="0"
     inkscape:current-layer="g92" />
  <g
     transform="translate(0.000000,143.000000) scale(0.100000,-0.100000)"
     fill="#000000"
     stroke="none"
     id="g92">
    <path
       d="M96 1365 c-9 -9 -16 -21 -16 -25 0 -16 43 -37 100 -50 78 -17 119 -39 134 -69 7 -14 35 -150 62 -300 l48 -275 -28 -108 c-51 -197 -55 -207 -82 -214 -40 -10 -74 -59 -74 -107 1 -65 45 -107 113 -107 38 0 82 29 92 60 6 20 17 20 459 20 l453 0 13 -26 c28 -51 112 -71 159 -38 13 9 29 31 37 50 47 113 -101 207 -180 114 l-25 -30 -454 2 -455 3 50 170 c27 94 51 171 52 173 2 1 196 13 432 26 464 25 478 27 527 85 39 47 47 90 47 267 l0 160 -583 38 c-337 22 -584 42 -586 48 -7 21 -65 80 -90 93 -15 7 -56 21 -91 30 -36 9 -72 18 -81 21 -9 3 -24 -3 -33 -11z m443 -224 c10 -6 23 -73 42 -208 16 -109 31 -210 33 -225 l6 -28 -65 0 c-52 0 -65 3 -69 18 -7 25 -76 420 -76 437 0 12 13 15 58 15 31 0 63 -4 71 -9z m207 -14 c1 -1 12 -88 24 -192 11 -105 23 -202 26 -217 l5 -26 -73 -4 c-40 -2 -75 -3 -76 -2 -2 2 -18 105 -36 230 l-33 227 81 -7 c44 -4 81 -8 82 -9z m190 -12 c8 -2 38 -310 39 -400 0 -8 -133 -26 -143 -19 -3 2 -52 404 -52 427 0 6 129 0 156 -8z m208 -123 c4 -64 7 -153 9 -197 l2 -80 -70 -6 c-38 -4 -72 -5 -73 -4 -5 4 -31 318 -32 370 l0 40 79 -3 79 -3 6 -117z m159 102 l37 -7 0 -179 c0 -134 -3 -180 -12 -182 -7 -3 -41 -7 -75 -10 l-61 -6 -6 73 c-3 39 -8 127 -11 195 l-6 122 48 0 c26 0 65 -3 86 -6z m150 -10 l37 -7 0 -131 c0 -114 -3 -135 -20 -164 -17 -27 -70 -62 -95 -62 -3 0 -5 83 -5 185 l0 185 23 0 c12 0 39 -3 60 -6z m-933 -476 c-1 -12 -90 -301 -94 -305 -20 -21 -15 24 19 150 21 78 40 145 42 150 4 6 33 11 33 5z m-146 -364 c19 -19 20 -25 3 -48 -19 -26 -61 -18 -65 12 -7 44 32 67 62 36z m1120 0 c19 -19 20 -25 3 -48 -19 -26 -61 -18 -65 12 -7 44 32 67 62 36z"
       id="path74"
       style="fill:#008000" />
    <path
       d="M2960 850 l0 -300 50 0 50 0 0 68 c0 65 10 92 35 92 5 -1 37 -36 70 -80 l60 -79 63 0 c34 -1 62 1 62 4 0 2 -41 57 -90 122 l-90 117 72 68 73 67 -75 1 -74 0 -53 -52 -53 -52 0 162 0 162 -50 0 -50 0 0 -300z"
       id="path76" />
    <path
       d="M1880 845 l0 -295 55 0 55 0 2 190 3 190 128 -190 128 -190 54 0 55 0 0 295 0 295 -55 0 -55 0 -2 -192 -3 -193 -129 193 -130 192 -53 0 -53 0 0 -295z"
       id="path78" />
    <path
       d="M4770 1080 c-25 -25 -25 -51 -2 -78 27 -31 55 -35 85 -11 30 23 34 54 11 87 -19 28 -67 29 -94 2z"
       id="path80" />
    <path
       d="M2548 901 c-122 -78 -114 -266 15 -333 50 -26 135 -30 163 -8 13 12 18 12 21 3 3 -8 23 -13 54 -13 l49 0 0 190 0 190 -50 0 c-39 0 -50 -4 -50 -16 0 -14 -2 -14 -22 0 -14 10 -44 16 -78 16 -45 0 -65 -6 -102 -29z m151 -75 c53 -28 67 -106 27 -153 -20 -23 -32 -28 -71 -28 -39 0 -51 5 -71 28 -42 49 -27 123 31 155 27 15 51 15 84 -2z"
       id="path82" />
    <path
       d="M3410 796 c0 -122 2 -136 23 -167 69 -102 196 -115 278 -29 44 46 49 70 49 216 l0 114 -50 0 -50 0 0 -116 c0 -115 0 -116 -30 -146 -25 -24 -36 -29 -58 -24 -53 13 -62 36 -62 167 l0 119 -50 0 -50 0 0 -134z"
       id="path84" />
    <path
       d="M3850 630 l0 -300 50 0 50 0 0 126 0 126 23 -14 c39 -26 76 -30 131 -14 110 32 166 155 121 263 -20 48 -41 71 -87 94 -46 24 -134 25 -166 3 -20 -14 -22 -14 -22 0 0 12 -11 16 -50 16 l-50 0 0 -300z m268 175 c33 -39 30 -98 -7 -136 -62 -61 -161 -14 -161 77 0 16 13 39 35 61 32 32 40 35 73 30 22 -4 46 -17 60 -32z"
       id="path86" />
    <path
       d="M4320 806 c0 -131 7 -166 43 -205 28 -30 94 -61 132 -61 46 0 109 34 141 76 28 36 29 41 32 176 l4 138 -51 0 -51 0 0 -110 c0 -121 -9 -153 -50 -170 -22 -9 -34 -8 -58 4 -16 8 -32 23 -36 31 -3 9 -6 68 -6 131 l0 114 -50 0 -50 0 0 -124z"
       id="path88" />
    <path
       d="M4760 715 c0 -216 0 -216 -25 -240 -13 -14 -31 -25 -40 -25 -14 0 -16 -8 -10 -52 4 -29 8 -54 10 -56 5 -6 74 23 104 46 63 47 71 80 71 325 l0 217 -55 0 -55 0 0 -215z"
       id="path90" />
  </g>
</svg>
